<svg xmlns="http://www.w3.org/2000/svg" height="20px" width="20px" viewBox="0 0 64 64" xml:space="preserve" style="fill-rule:evenodd;clip-rule:evenodd;stroke-linecap:round;stroke-linejoin:round;stroke-miterlimit:2"><path d="M23.534 30.991c.982 0 1.854-.628 2.165-1.56a6.187 6.187 0 0 1 5.904-4.293 6.256 6.256 0 0 1 5.934 4.283 2.251 2.251 0 0 0 2.135 1.538c.986.032 2.002.032 2.002.032a6.597 6.597 0 0 1 6.596 6.596v.003a6.595 6.595 0 0 1-6.596 6.596H21.532a6.597 6.597 0 0 1-6.595-6.596v-.003a6.596 6.596 0 0 1 6.595-6.596h2.002z" style="fill:none;stroke:#222a33;stroke-width:1.5px"/><path d="M11.566 39.798A6.593 6.593 0 0 1 7 33.522v-.003a6.597 6.597 0 0 1 6.596-6.595h3.833a6.254 6.254 0 0 1 6.238-5.854 6.256 6.256 0 0 1 5.967 4.388M37.309 21.852a6.203 6.203 0 0 1 3.024-.782 6.258 6.258 0 0 1 5.929 4.267 2.283 2.283 0 0 0 2.164 1.554c.978.033 1.978.033 1.978.033A6.598 6.598 0 0 1 57 33.519v.003a6.595 6.595 0 0 1-6.596 6.596h-2.638" style="fill:none;stroke:#222a33;stroke-width:1.5px"/><path d="M38.965 20.838a6.091 6.091 0 0 1 6.089-6.089 6.091 6.091 0 0 1 5.741 8.118M45.054 9.675v2.03M52.946 12.945l-1.435 1.435M56.216 20.838h-2.03M37.161 12.945l1.435 1.435M10.044 54.325l3.045-4.059M18.162 54.325l3.045-4.059M26.28 54.325l3.045-4.059M34.399 54.325l3.044-4.059M42.517 54.325l3.044-4.059M50.635 54.325l3.044-4.059" style="fill:none;stroke:#222a33;stroke-width:1.5px"/></svg>